<svg id="Layer_1" data-name="Layer 1" xmlns="http://www.w3.org/2000/svg" viewBox="0 0 1920 1080"><defs><style>.cls-1{fill:#ff25af;}.cls-2{fill:#fff;}</style></defs><g id="Group_108" data-name="Group 108"><circle id="Ellipse_18" data-name="Ellipse 18" class="cls-1" cx="787.81" cy="424.49" r="59"/><g id="Group_107" data-name="Group 107"><path id="Path_135" data-name="Path 135" class="cls-2" d="M754.31,395l27.35,31a8.25,8.25,0,0,0,12.3,0l26.88-30.5a2.92,2.92,0,0,1,.76-.6,9.16,9.16,0,0,0-3.72-.78H757.74a9.28,9.28,0,0,0-3.57.71A1.66,1.66,0,0,1,754.31,395Z"/><path id="Path_136" data-name="Path 136" class="cls-2" d="M825.74,398.55a3,3,0,0,1-.53.89l-26.87,30.5a14,14,0,0,1-19.81,1.24,13.19,13.19,0,0,1-1.24-1.24l-27.36-31a2.43,2.43,0,0,1-.14-.2,9.15,9.15,0,0,0-1.34,4.78v42a9.28,9.28,0,0,0,9.29,9.29h60.14a9.29,9.29,0,0,0,9.29-9.29h0v-42A9.29,9.29,0,0,0,825.74,398.55Z"/></g></g></svg>