<svg id="Layer_1" data-name="Layer 1" xmlns="http://www.w3.org/2000/svg" viewBox="0 0 1920 1080"><defs><style>.cls-1{fill:#ff25af;}.cls-2{fill:#fff;}</style></defs><g id="Group_106" data-name="Group 106"><path id="Path_127" data-name="Path 127" class="cls-1" d="M642.9,401.8a59.38,59.38,0,1,0-68.66,58.66V419H559.17V401.8h15.07V388.71c0-14.88,8.87-23.1,22.43-23.1a92.55,92.55,0,0,1,13.3,1.16v14.62h-7.49c-7.38,0-9.68,4.58-9.68,9.27V401.8h16.47L606.64,419H592.8v41.5A59.39,59.39,0,0,0,642.9,401.8Z"/><path id="Path_128" data-name="Path 128" class="cls-2" d="M606.64,419l2.63-17.16H592.8V390.66c0-4.7,2.3-9.28,9.67-9.28H610V366.77a91,91,0,0,0-13.29-1.16c-13.57,0-22.43,8.22-22.43,23.1v13.08H559.17V419h15.07v41.5a60.16,60.16,0,0,0,18.56,0V419Z"/></g></svg>