<svg id="Layer_1" data-name="Layer 1" xmlns="http://www.w3.org/2000/svg" viewBox="0 0 1920 1080"><defs><style>.cls-1{fill:#ff25af;}.cls-2{fill:#fff;}</style></defs><g id="Group_105" data-name="Group 105"><circle id="Ellipse_14" data-name="Ellipse 14" class="cls-1" cx="890.37" cy="399.18" r="59"/><g id="Group_102" data-name="Group 102"><path id="Path_124" data-name="Path 124" class="cls-2" d="M908.68,376.86a4.06,4.06,0,1,0,4.06,4.05h0a4,4,0,0,0-4-4.05Z"/><path id="Path_125" data-name="Path 125" class="cls-2" d="M890.65,382.06a17,17,0,1,0,17,17A17,17,0,0,0,890.65,382.06Zm0,27.95a10.92,10.92,0,1,1,10.91-10.91h0A10.92,10.92,0,0,1,890.65,410Z"/><path id="Path_126" data-name="Path 126" class="cls-2" d="M904.18,433.68H876.56a20.8,20.8,0,0,1-20.78-20.78V385.29a20.8,20.8,0,0,1,20.78-20.78h27.62A20.79,20.79,0,0,1,925,385.29V412.9A20.8,20.8,0,0,1,904.18,433.68ZM876.56,371a14.28,14.28,0,0,0-14.27,14.27V412.9a14.29,14.29,0,0,0,14.27,14.28h27.62a14.29,14.29,0,0,0,14.27-14.28V385.29A14.28,14.28,0,0,0,904.18,371Z"/></g></g></svg>