<svg id="Layer_1" data-name="Layer 1" xmlns="http://www.w3.org/2000/svg" viewBox="0 0 1920 1200"><defs><style>.cls-1{fill:#fff;}.cls-2{opacity:0.7;}.cls-2,.cls-3,.cls-4,.cls-6{isolation:isolate;}.cls-3{opacity:0.75;}.cls-4{opacity:0.27;}.cls-5{fill:#e64498;}.cls-6{opacity:0.2;}</style></defs><g id="Group_116" data-name="Group 116"><g id="Path_147" data-name="Path 147"><path class="cls-1" d="M2041.4,968.18l-1-.42c14.87-33.71,9.56-73.79-14.56-110-19.91-29.88-52.61-57.64-97.21-82.51-193.72-108.06-447.13-86.6-625.61-49.58-89.77,18.62-178.86,43.74-265,68C923.2,826.09,804.46,859.57,682.87,878A1524.88,1524.88,0,0,1,321,888.86c-121.63-10.72-239.41-35.5-350.06-73.65l.34-1C192.82,890.6,445.48,912.88,682.71,877c121.53-18.4,240.24-51.87,355-84.24,86.18-24.29,175.29-49.42,265.09-68,115.81-24,225.24-33.64,325.23-28.56,117.38,5.95,218.68,32.28,301.1,78.25,44.74,24.95,77.56,52.83,97.56,82.84C2051.07,893.69,2056.41,934.14,2041.4,968.18Z"/></g><g id="Path_148" data-name="Path 148"><path class="cls-1" d="M351.81,999.37c-54.57,0-109.09-4.59-160.39-13.82-110.95-20-208.84-62-268.58-115.28l.69-.77c59.6,53.17,157.31,95.1,268.07,115s236.66,18.21,345.36-4.72c167.5-35.32,284-115.64,366.88-181.66,20.81-16.6,41.41-33.76,61.33-50.36,70.26-58.55,142.91-119.08,239.83-167,56.11-27.75,121.11-50.92,193.18-68.86,70.2-17.48,145.34-29.57,223.34-35.94A1538.59,1538.59,0,0,1,1855,474.58c79,5.6,154.15,17.31,223.49,34.81l-.25,1c-284-71.69-642.93-42.37-872.74,71.3-96.81,47.89-169.41,108.38-239.63,166.89-19.92,16.6-40.52,33.77-61.34,50.37-82.92,66.1-199.6,146.5-367.32,181.87C478.68,993.17,415.22,999.37,351.81,999.37Z"/></g></g><g id="Path_155" data-name="Path 155"><path class="cls-1" d="M446.65,629.41a63.09,63.09,0,0,1-10.25-.84c-18.71-3.11-36.74-14.55-49.47-31.37-12.21-16.13-15.81-33.81-9.64-47.28,3.11-6.8,8.5-12.17,13.72-17.36,4.1-4.09,8.34-8.31,11.45-13.21,7.44-11.72,8-26.3,8-40.24v-2c0-13.38-.07-27.21,5.64-39.35,5.82-12.38,20.62-23,34.37-18.42,5.25,1.73,8.21,4.66,12.3,8.71a117.53,117.53,0,0,0,22.54,17.89c5.29,3.31,11.07,6.53,18.63,6.44a25,25,0,0,0,16.1-5.66,21.84,21.84,0,0,0,4.45-5.32h0c5.31-8.65,10.34-20,14-28.19,1.35-3,2.52-5.65,3.44-7.55,4.56-9.43,11.46-23.69,24.56-28,11.47-3.8,24.66.65,40.31,13.62,7.59,6.29,16.14,14.07,22,24.07,6.06,10.38,8,21.93,5.41,31.67-5.42,20.2-27.53,29.79-45.11,34.27-3.49.89-7.09,1.72-10.58,2.52-15.66,3.59-31.86,7.31-43.75,17.9-15.38,13.7-19.51,35-23.5,55.59-3.71,19.11-7.54,38.87-20.19,53.22C480.47,622.46,463.78,629.41,446.65,629.41Zm-2.88-210.14c-11.17,0-22,8.84-26.71,18.9-5.61,11.92-5.57,25.63-5.54,38.89v2.05c0,14.09-.6,28.84-8.19,40.8-3.17,5-7.45,9.26-11.6,13.39-5.14,5.13-10.47,10.43-13.5,17.05-6,13.12-2.45,30.4,9.52,46.22,12.58,16.62,30.37,27.9,48.81,31,20.15,3.35,41.23-3.63,53.72-17.79S506.56,576,510.23,557c4-20.77,8.19-42.24,23.83-56.18,12.1-10.77,28.42-14.51,44.22-18.14,3.48-.8,7.08-1.62,10.55-2.51,14.18-3.61,38.79-12.78,44.37-33.53,2.54-9.48.61-20.73-5.31-30.88-5.74-9.85-14.21-17.55-21.73-23.79-15.35-12.72-28.2-17.11-39.31-13.43-12.68,4.2-19.47,18.22-24,27.5-.91,1.88-2.07,4.49-3.42,7.51-3.68,8.27-8.73,19.6-14.07,28.31a22.93,22.93,0,0,1-4.66,5.58A26,26,0,0,1,504,453.38c-7.8.08-13.77-3.2-19.2-6.6a118.55,118.55,0,0,1-22.71-18c-4.14-4.1-6.88-6.8-11.89-8.46A20.62,20.62,0,0,0,443.77,419.27Z"/></g><g id="Path_143" data-name="Path 143"><path class="cls-1" d="M1019.21,1225.68c-40.35-40.61-82.08-82.6-110.37-133.74-8.5-15.37-15.78-31.62-22.68-47.67q.47,3,.72,6.07l-1,.15-3.07-14.13-1.27-3c-3.58-8.41-7.21-16.92-11-25.4a86.72,86.72,0,0,0-103.67-30.77l-.39-1a87.75,87.75,0,0,1,102,27.26A368.81,368.81,0,0,0,848,964.17a201.8,201.8,0,0,0-20.79-28.29c-25.61-23.33-57.24-40-91.42-46.6l-5-1,5.11-.07c32.47-.44,65.34,16.68,92.09,46.93a200.42,200.42,0,0,1,38.16,47.19,440,440,0,0,1-16.53-98.92l1-.14,26.08,120.15a180.74,180.74,0,0,1,10.95,35.13l1,4.69-1.94-4.38c-1.52-3.45-3-6.92-4.44-10.4a86.48,86.48,0,0,1,3.11,11.2c7.42,17.37,15.21,35.08,24.42,51.74,26.32,47.59,64.36,87.29,102.07,125.33l-65-78.54c-13.39-16.17-30.06-36.31-33.22-60.07-1.94-14.6,1.36-29.29,4.54-43.49,1.3-5.8,2.65-11.8,3.62-17.7,8.69-53-14-110.66-56.48-143.5-21-16.23-46-26.66-70.23-36.75C783.62,832,771.8,827,760.53,821.55c-29.32-14.26-65.42-39-75.61-77,1.17,21,1.14,42.31,1.11,63,0,25.65-.07,52.17,2.19,78.13,5.07,58.32,22.1,103.94,50.6,135.59,30.4,33.77,85.78,56.5,132.78,34.59l.44,1c-47.46,22.12-103.34-.79-134-34.84-28.65-31.82-45.76-77.65-50.86-136.2-2.26-26-2.23-52.55-2.19-78.22,0-22.76.06-46.29-1.51-69.35l1-.13c7.59,41.18,45.78,67.62,76.47,82.55,11.25,5.47,23.06,10.39,34.47,15.15,24.28,10.11,49.38,20.57,70.47,36.88a154.9,154.9,0,0,1,56.87,144.49c-1,5.94-2.33,11.95-3.63,17.77-3.17,14.11-6.44,28.71-4.53,43.12,3.12,23.47,19.68,43.47,33,59.55L1020,1225ZM880.74,1022c1.53,3.89,3.13,7.75,4.77,11.6a178.33,178.33,0,0,0-7.52-24.26Zm-6.58-8.41c2.53,5.78,5,11.57,7.45,17.31l-.6-2.74A86.58,86.58,0,0,0,874.16,1013.62Zm-2.75-6.19a86.87,86.87,0,0,1,7.93,13.9q-6.69-17.07-11.92-34.58a198.13,198.13,0,0,0-33.34-44.29,205.26,205.26,0,0,1,14.8,21.17A387.49,387.49,0,0,1,871.41,1007.43ZM870,991.56q3.79,12.2,8.33,24.17l-2.6-12C874,999.63,872,995.56,870,991.56Zm-1.59-5.2q3.33,6.06,6.23,12.37L851,890.11A437.55,437.55,0,0,0,868.39,986.36Zm-127-97a190.87,190.87,0,0,1,79,39.25C796.78,904.72,769.06,890.73,741.39,889.39Z"/></g><g id="Path_141" data-name="Path 141" class="cls-2"><path class="cls-1" d="M76,1223.38c-12.66-22.66-16.25-52.54-10.09-84.13,5.54-28.43,17.66-55.09,29.38-80.88l18.65-41c-32.57-9.87-61.13-31.48-77.14-60.53-23.62-42.86-20-93.12-13.41-149.62,8.7-74,18.56-157.9,60.48-226.27,14.73-24,39.59-43.72,61.92-33.56,10.8,4.92,16.52,14.29,19.64,25.53,23.24-5.25,48.35-5.09,72.85-3.72,20.87,1.16,42.83,3.14,61.64,13.31,17.4,9.42,33.75,29,31,51.62-1.11,9.18-5.3,17.64-9.34,25.81-1.61,3.24-3.26,6.58-4.7,9.91-3,6.87-8.88,24.13.05,36.13,7.25,9.74,19.52,11.1,32.52,12.55,10.35,1.14,21.06,2.33,29.36,8,14.3,9.85,16.32,29.64,12.16,43.84-4.61,15.72-15.74,28.85-25.56,40.44l-58.3,68.78-2.23,2.63c-3.75,18.31-9,36.29-17.25,53.26-23.09,47.48-70.28,81.63-120.21,87a134.7,134.7,0,0,1-52.49-4.87L96.22,1058.8c-11.69,25.74-23.78,52.34-29.3,80.65-6.11,31.35-2.56,61,10,83.42Zm39.38-206.72a133.88,133.88,0,0,0,51.95,4.8c49.58-5.35,96.44-39.27,119.39-86.44,7.93-16.29,13.06-33.54,16.77-51.13-24,28.24-51.17,59.24-85.87,77.73-18.41,9.81-39.46,15.36-59.27,15.63a103.09,103.09,0,0,1-24-2.37Zm17.83-471c-18.2,0-36.62,16.49-48.45,35.79C43,649.62,33.1,733.39,24.41,807.3c-6.61,56.31-10.17,106.39,13.3,149,15.89,28.85,44.29,50.3,76.65,60.07l19-41.72A84.42,84.42,0,0,1,101.54,960c-16.15-12.16-26.61-30.66-30.27-50.39q-1.55-2.46-2.88-5.1c-7.59-15-9.59-32.24-10.87-47.18a596.51,596.51,0,0,1,5.35-145.18A308.08,308.08,0,0,1,74.92,662c5-32.38,24.7-63.19,53.41-80.86l.55-.34.22.61c.57,1.6,1.13,3.21,1.68,4.81a120.05,120.05,0,0,1,33.61-13.06c-3-11-8.62-20.07-19-24.82A29,29,0,0,0,133.2,545.65Zm1.61,428.21c28.07,6,59-.76,82.31-13.16,35.12-18.71,62.59-50.39,86.81-79,3.51-17.22,5.72-34.74,7.89-52l13.08-103.9c-8.95,18.9-24.84,33.74-48.48,45.29-18.76,9.17-39.77,14.92-58.11,18.91Zm-62-61.92c4,18.55,14.12,35.78,29.39,47.27a82.6,82.6,0,0,0,31.6,14.42L217,790.35c-4.16.9-8.18,1.7-12,2.44-12.52,2.42-25.07,5-37.22,8.2q.21,23.78-1.25,47.71c-1.12,18.19-3.15,39.08-13.05,56.68-8.91,15.84-27.22,30.67-48,28.14C93.11,932,81.11,924,72.78,911.94Zm-.54-2.7c8.19,13,20.58,21.68,33.38,23.25,20.34,2.48,38.26-12.09,47-27.62,9.8-17.41,11.81-38.16,12.92-56.23q1.46-23.75,1.25-47.38C130,811,96.92,826,80.11,856.64,71.34,872.62,69,891.43,72.24,909.24Zm2-241.75a317.64,317.64,0,0,0-10.3,44.87,595.88,595.88,0,0,0-5.34,144.92c1.27,14.84,3.25,31.92,10.76,46.8.47.93,1,1.85,1.47,2.74-2.62-17.25-.05-35.27,8.41-50.69,17-31,50.4-46.15,87.58-55.94q-.09-10.32-.51-20.61c-2.2-.13-4.4-.34-6.59-.65C117.31,773,80.74,735.68,74.6,692A101.74,101.74,0,0,1,74.2,667.49Zm252.64,51.29-14,111.12c-2.09,16.64-4.22,33.55-7.53,50.21.34-.4.67-.8,1-1.19l58.29-68.79c9.76-11.51,20.81-24.55,25.36-40,4.06-13.86,2.12-33.13-11.75-42.69-8.09-5.57-18.66-6.74-28.89-7.88-13.22-1.47-25.72-2.85-33.24-13-6.51-8.76-6.57-22.3-.17-37.16,1.45-3.36,3.11-6.71,4.72-10,4-8.1,8.16-16.47,9.25-25.47,2.65-22-13.95-41.63-30.49-50.58-18.62-10.07-40.44-12-61.2-13.19-24.4-1.36-49.4-1.52-72.52,3.69,3,11.49,3.41,24.83,3.79,37.34.06,1.68.11,3.34.16,5q.17,4.39.52,8.77a62.55,62.55,0,0,1,12.8-2.45c20.07-1.69,40.41,7,55.8,23.8,16.55,18.07,24.17,41.91,20.38,63.76-2.94,16.92-11.92,32.17-24.51,44.06l-15.78,34.75c44.76-9.84,89.57-26.49,106.52-66.63ZM167.31,779.64q.41,10.13.51,20.28c12.1-3.15,24.59-5.75,37-8.16q6.33-1.21,12.73-2.6l15.09-33.23C215.22,771.48,191.45,780.76,167.31,779.64Zm0-1c24.72,1.2,49.07-8.68,66.49-25l.07-.17a185.75,185.75,0,0,1-25.06-26.76c-8.23,10.14-23.13,15-35.77,13.68a47.72,47.72,0,0,1-8.59-1.73Q166.44,758.51,167.27,778.59ZM75.93,662.21a101.76,101.76,0,0,0-.29,29.67c6.07,43.22,42.26,80.19,84.18,86,2.13.3,4.27.51,6.4.64q-.84-20.22-2.89-40.31c-23.93-7.8-41.76-34-39-60.11,1.6-15.2,9.59-29.2,21.19-39.38q-6.62-25.69-15.3-51c-1.07.64-2.12,1.31-3.17,2C104.33,604.53,87.42,628.44,75.93,662.21Zm133.5,63.57a184.78,184.78,0,0,0,25.22,26.92c12-11.63,20.62-26.42,23.46-42.8,3.73-21.54-3.79-45-20.12-62.87-15.17-16.58-35.21-25.12-55-23.47A61.6,61.6,0,0,0,170.26,626,188.46,188.46,0,0,0,179,668a37.19,37.19,0,0,1,6.29-.37c11.84.31,22.52,7.31,26,17a20.41,20.41,0,0,1-.28,13.63c3.3,5.39,4.61,11.67,3.27,17.28A27.29,27.29,0,0,1,209.43,725.78Zm-45.14,11.66a45.35,45.35,0,0,0,8.81,1.82c12.42,1.31,27.07-3.5,35-13.48q-5.67-7.47-10.6-15.47l-.09,0c-6.29.89-11.88-3.29-14.63-7.83-3-4.89-3-10.15-.18-14.09l.16-.14a15,15,0,0,1,2.45-1.2q-3.91-8.76-6.95-17.87c-7.26,1.2-14.84,4.51-22.61,9.89Q161.27,708.07,164.29,737.44ZM145.8,639.86c-11.2,10-18.89,23.6-20.45,38.37-2.68,25.48,14.59,51,37.86,58.86A671,671,0,0,0,145.8,639.86Zm52.81,70.25q4.74,7.64,10.17,14.81a26.5,26.5,0,0,0,4.46-9.56,22,22,0,0,0-2.74-15.82,20.26,20.26,0,0,1-1.29,2.49A16.81,16.81,0,0,1,198.61,710.11Zm-15.21-21c-2.52,3.57-2.42,8.37.29,12.85,2.52,4.16,7.55,8,13.23,7.38A196.16,196.16,0,0,1,185.66,688,15.63,15.63,0,0,0,183.4,689.11Zm3.25-1.43A196,196,0,0,0,198,709.17a15.71,15.71,0,0,0,10.29-7.68,20.7,20.7,0,0,0,1.51-3.06,27.07,27.07,0,0,0-6.74-7.2C197.76,687.31,191.84,686.08,186.65,687.68Zm4.58-1.73a21.22,21.22,0,0,1,12.48,4.44,28.09,28.09,0,0,1,6.56,6.82,19.19,19.19,0,0,0,0-12.17c-3.31-9.31-13.6-16-25-16.33a36.07,36.07,0,0,0-5.93.34q3,9,6.89,17.67A16.7,16.7,0,0,1,191.23,686Zm-44.55-46.86q5,19.35,8.77,38.89c7.71-5.29,15.25-8.56,22.5-9.78a189.46,189.46,0,0,1-8.71-41.84A66,66,0,0,0,146.68,639.09Zm-18.35-56.78c-26.28,16.4-44.82,43.93-51.21,73.45C88.62,625,105,602.88,126.47,588.84c1.12-.73,2.25-1.44,3.39-2.12Q129.11,584.52,128.33,582.31Zm2.8,4.87q8.64,25.19,15.26,50.8a67,67,0,0,1,22.76-12.69q-.39-4.51-.55-9c-.06-1.64-.11-3.31-.16-5-.38-12.46-.79-25.74-3.77-37.14A118.87,118.87,0,0,0,131.13,587.18Z"/></g><g id="Path_142" data-name="Path 142" class="cls-3"><path class="cls-1" d="M914.65,522.79c-12.29,0-24-2.57-34.62-8.92-21.61-12.89-31-36.59-34.71-62.37a98.77,98.77,0,0,1-35.3-5.07l-.54-.19.23-.52c14.35-31.64,16.14-70.29,5.65-121.64-2.51-12.3-5.52-24.75-8.43-36.78-6.68-27.64-13.59-56.22-15-85.07-2.32-48.17,12.81-89.25,41.53-112.71,25.61-20.94,63.14-28.62,103-21.08a207.67,207.67,0,0,1,28,7.45C973.26,63.4,980.26,50,983.49,35,993.35-11,965-55.92,940.05-95.52l-1.82-2.89c-15.88-25.2-26.28-47.14-31.79-67.08-7.25-26.23-6-49.49,3.75-69.14l.94.46c-22.58,45.57,5.15,99,28,135.21l1.83,2.89C966-56.3,994.46-11.23,984.5,35.17c-3.24,15.11-10.23,28.56-19,41.08,24,8.26,47.24,20.37,70.67,33.14,30.14,16.42,58.4,33.49,73,61.65,14.41,27.79,12.16,61.9,10.35,89.32l-13.54,205.48h-1A189.24,189.24,0,0,0,1071,369.09c2.09,34.21,0,67.87-19.75,93.23-17.4,22.41-46.14,34.07-69.23,43.45C959.32,515,936.07,522.79,914.65,522.79Zm-68.28-71.33c3.68,25.47,13,48.84,34.19,61.51,28.79,17.2,65.59,6.24,101.07-8.17,23-9.32,51.56-20.93,68.8-43.12,19.81-25.5,21.67-59.62,19.42-94.21a191.5,191.5,0,0,0-25.21-28.61,260.39,260.39,0,0,0-26.47-21l-3.06,95.64-.48,0c-2.4.14-4.82.2-7.23.2A144.75,144.75,0,0,1,942.47,398a149,149,0,0,1-11.3,13.47C908,435.94,876.79,450.14,846.37,451.46Zm224.5-84.35a190.11,190.11,0,0,1,34.48,91.65l13.08-198.47c1.8-27.28,4-61.24-10.23-88.77-14.46-27.9-42.58-44.87-72.57-61.21-23.48-12.8-46.72-24.94-70.8-33.18a253.68,253.68,0,0,1-16,19.87,78.79,78.79,0,0,1,7.52-3c19.28-6.67,38.47-5.3,54,3.85,32.38,19,40.62,60.83,44.7,103.18l14.11,146.46C1069.86,354,1070.44,360.55,1070.87,367.11Zm-260,78.51a97.69,97.69,0,0,0,34.28,4.84c-2.16-15.65-2.26-32-1.77-47.18,1.55-47.46,3.67-93.76,12.4-138.51,8.89-45.53,23.61-82.77,44.88-113.38a59.15,59.15,0,0,1,4.83-17.06,39.74,39.74,0,0,1,16.35-17.56,85.45,85.45,0,0,1,24.57-18.6A261.3,261.3,0,0,0,963.8,76.78a206.32,206.32,0,0,0-27.55-7.31c-39.52-7.49-76.74.11-102.11,20.85-28.46,23.25-43.45,64-41.15,111.86,1.38,28.75,8.28,57.28,15,84.87,2.91,12.05,5.92,24.5,8.43,36.82C826.86,375.16,825.12,413.87,810.9,445.62Zm89.51-292c-46.23,67.47-52.8,153.27-56,249.71-.49,15.15-.39,31.5,1.77,47.12,30.19-1.28,61.21-15.37,84.2-39.71a148.84,148.84,0,0,0,11.11-13.23,141.48,141.48,0,0,1-42.88-33.69l-.6-.7,8.86-1.52-.13-3.31h0l-6.7-179.19C899.77,170.94,899.45,162.2,900.41,153.6ZM943.1,397.13a142.89,142.89,0,0,0,71,15.38l3.06-95.37c-7.37-5.16-14.88-10.09-22.28-14.95-5.31-3.48-10.66-7-16-10.6a237.82,237.82,0,0,1-12.08,59.73L985,348.21l-.54,1c-5.24,9.19-14.14,16.24-24.9,20A165.64,165.64,0,0,1,943.1,397.13ZM900,363.82a140.56,140.56,0,0,0,42.12,32.83,164.92,164.92,0,0,0,16.05-27,54.39,54.39,0,0,1-10.45,2.26c-13.91,1.63-27.34-2.05-37-9.93Zm12.09-2.08c9.39,7.32,22.22,10.7,35.5,9.14a53.89,53.89,0,0,0,11.19-2.53c2.42-5.21,4.56-10.46,6.44-15.7Zm54.31-9.29c-1.83,5.14-3.9,10.3-6.24,15.41A44.83,44.83,0,0,0,983,349.61Zm51.77-35.84a263.83,263.83,0,0,1,27.13,21.48,192.46,192.46,0,0,1,24.38,27.42c-.42-6-1-12-1.52-18l-14.11-146.46c-4-42.07-12.21-83.59-44.18-102.38-15.31-9-34.19-10.33-53.17-3.77A81.75,81.75,0,0,0,947.09,99c-4.18,4.69-8.46,9.31-12.71,13.9l-.16.18a24.07,24.07,0,0,1,8.32,1c17.43,5.26,22.89,26.28,25.71,44,6.16,38.74,12.5,78.67,11.42,118.61,9.49-5.78,19.46-7.68,28-1.75,10.29,7.17,11.23,21.76,10.81,35.09ZM908.67,360.16l-1,1.3,2.09-.36C909.36,360.79,909,360.48,908.67,360.16Zm.66-.82c.56.53,1.13,1,1.72,1.53l54.61-9.35a237.16,237.16,0,0,0,12.26-60.6c-2.66-1.82-5.3-3.65-7.93-5.52A97.14,97.14,0,0,0,960.14,296Zm-1.46,0v.11l0-.06Zm-.06-1.54.76.78,50.76-63.26a97.24,97.24,0,0,1,9.8-10.58c-12-8.62-23.57-18-33.61-28.85A133.06,133.06,0,0,1,905,201c-4.93-18.57-5-36.89-.26-53.47-1,1.41-2.06,2.84-3.06,4.27-1.25,9.16-.9,18.57-.57,27.27ZM979,290.39c5.47,3.73,11,7.35,16.45,10.93,7.22,4.74,14.55,9.55,21.74,14.58l.19-5.9c.42-13.05-.48-27.32-10.35-34.21-8.26-5.76-18.06-3.72-27.39,2.13q-.2,6.1-.62,12.2C979,290.21,979,290.3,979,290.39Zm-8.22-5.71c2.39,1.7,4.81,3.38,7.22,5q.39-5.55.57-11.1A68.36,68.36,0,0,0,970.78,284.68ZM906.61,145c-11.18,34.9.38,78.51,29.68,110.25,10,10.86,21.58,20.2,33.63,28.83a68.57,68.57,0,0,1,8.69-6.71c1.17-40.08-5.2-80.19-11.39-119.11-2.77-17.42-8.11-38.07-25-43.16a23,23,0,0,0-9.06-.87C925,123,916.7,132.07,909.35,141.42Q908,143.19,906.61,145Zm13-25.6a39,39,0,0,0-13.12,15.39,56.41,56.41,0,0,0-4.43,14.7c1.18-1.67,2.39-3.32,3.61-4.95.53-1.63,1.11-3.23,1.73-4.82A73.79,73.79,0,0,1,919.59,119.38Zm2.95-1.8a73.85,73.85,0,0,0-14.19,22.5c-.23.59-.46,1.2-.68,1.8l.86-1.11c7.12-9.05,15.15-17.83,23-26.35A29.05,29.05,0,0,0,922.54,117.58Zm21.92-17.2a84.52,84.52,0,0,0-19.91,15.07,28.32,28.32,0,0,1,8.13-2.23l.94-1C937.24,108.29,940.88,104.36,944.46,100.38Z"/></g><g id="Path_149" data-name="Path 149"><path class="cls-1" d="M116.38,247.34c-1.53,0-3.06-.06-4.61-.2C92,245.38,73.31,231,64.27,210.57c-9.79-22.18-7.2-45.83-3.31-61.76,5.1-20.88,14.83-40,24.37-57.84,12.6-23.56,19-33,29.54-39.06,3.36-1.93,13.59-7.78,26.25-6.41a38.76,38.76,0,0,1,11.65,3.31c11.75,4.84,22,5.25,33,5.7,2.86.11,5.82.23,8.79.44,1.18.08,29.12,2.11,56.36,12.6a131.24,131.24,0,0,1,60.54,47.6c4.35,6.29,10.05,15.83,9.26,26-1.32,16.91-19,27.59-34.87,30.36-7.29,1.28-14.82,1.51-22.09,1.74-8.8.27-17.9.55-26.56,2.69-21,5.17-37.68,20.45-53.84,35.23q-3.14,2.86-6.25,5.69C161.15,231.26,140.1,247.34,116.38,247.34Zm20.9-201c-10.59,0-18.94,4.79-21.89,6.48C105,58.74,98.75,68.09,86.25,91.46,76.74,109.22,67,128.3,62,149.06c-3.85,15.78-6.42,39.18,3.26,61.09,8.88,20.11,27.19,34.22,46.64,35.95,1.51.14,3,.2,4.5.2,23.38,0,44.22-15.94,60-30.17,2.07-1.87,4.15-3.77,6.24-5.68,16.25-14.86,33.06-30.24,54.29-35.47,8.77-2.16,17.92-2.45,26.77-2.72,7.25-.23,14.73-.46,21.95-1.72,15.49-2.71,32.74-13.06,34-29.42.77-9.89-4.81-19.22-9.08-25.38a130.15,130.15,0,0,0-60-47.22C223.42,58.09,195.63,56.07,194.46,56c-3-.21-5.91-.33-8.77-.44-11-.45-21.4-.87-33.32-5.78h0A38.11,38.11,0,0,0,141,46.53,36.56,36.56,0,0,0,137.28,46.33Z"/></g><g id="Path_150" data-name="Path 150" class="cls-4"><path class="cls-5" d="M178.62,60.75c15,6.19,27.89,5.21,41.93,6.18,2.83.2,29.89,2.44,56.21,12.57a131.14,131.14,0,0,1,60.3,47.41c5.27,7.62,9.88,16.43,9.16,25.72C345,169,327.88,179.71,311.79,182.52S279,183,263.1,187c-23.81,5.87-42,24.56-60.31,41s-40.54,32.27-64.91,30.11c-20.73-1.85-38.67-17.23-47.07-36.27s-8.25-41.1-3.29-61.42,14.44-39.26,24.32-57.72c12.49-23.35,18.87-32.86,29.34-38.86,3.31-1.89,13.44-7.69,25.94-6.34A38.73,38.73,0,0,1,178.62,60.75Z"/></g><g id="Path_151" data-name="Path 151"><path class="cls-1" d="M1765.68,1184.32c-31.92,0-63.16-17.22-79.53-44.49-9.37-15.62-16.05-39.78-6.69-60.78,5.79-13,17.12-23.62,33.69-31.62a234.6,234.6,0,0,1,23.19-9.24c6.37-2.28,13-4.64,19.25-7.43,16.91-7.48,28.38-17,35.07-28.92,3.46-6.21,5.65-13.23,7.76-20,1-3.32,2.1-6.75,3.31-10.06,4.65-12.75,11-21,19-24.66,5.38-2.45,12-2.92,19.74-1.41,4.84,1,29.61,6.87,42.32,30.6,6.92,12.92,7.32,26.73,8.13,54.23.18,6.15.11,12.62-.2,18.72a222.17,222.17,0,0,1-3.55,30.53c-3.7,18-14.77,32.27-22.86,42.72-2.26,2.92-4.21,5.44-5.71,7.66-20.8,30.81-52.62,50.93-85.11,53.83Q1769.58,1184.32,1765.68,1184.32Zm66.43-238.46a26.28,26.28,0,0,0-11,2.18c-7.68,3.49-13.89,11.59-18.44,24.07-1.2,3.29-2.26,6.7-3.29,10-2.13,6.85-4.34,13.93-7.85,20.23-6.8,12.18-18.43,21.78-35.55,29.36-6.34,2.81-13,5.17-19.33,7.46a233.08,233.08,0,0,0-23.09,9.2c-16.34,7.88-27.5,18.35-33.19,31.1-9.2,20.63-2.61,44.43,6.63,59.82,17.5,29.15,52.19,46.68,86.35,43.64,32.18-2.87,63.71-22.82,84.34-53.37,1.52-2.26,3.47-4.79,5.74-7.71,8-10.38,19-24.59,22.67-42.29a221.54,221.54,0,0,0,3.53-30.38h0c.31-6.08.37-12.52.19-18.63-.79-27.35-1.19-41.07-8-53.78-12.49-23.32-36.84-29.13-41.6-30.06A42,42,0,0,0,1832.11,945.86Z"/></g><g id="Path_152" data-name="Path 152" class="cls-6"><path class="cls-5" d="M178.62,60.75c15,6.19,27.89,5.21,41.93,6.18,2.83.2,29.89,2.44,56.21,12.57a131.14,131.14,0,0,1,60.3,47.41c5.27,7.62,9.88,16.43,9.16,25.72C345,169,327.88,179.71,311.79,182.52S279,183,263.1,187c-23.81,5.87-42,24.56-60.31,41s-40.54,32.27-64.91,30.11c-20.73-1.85-38.67-17.23-47.07-36.27s-8.25-41.1-3.29-61.42,14.44-39.26,24.32-57.72c12.49-23.35,18.87-32.86,29.34-38.86,3.31-1.89,13.44-7.69,25.94-6.34A38.73,38.73,0,0,1,178.62,60.75Z"/></g><g id="Path_153" data-name="Path 153"><path class="cls-1" d="M1765.68,1184.32c-31.92,0-63.16-17.22-79.53-44.49-9.37-15.62-16.05-39.78-6.69-60.78,5.79-13,17.12-23.62,33.69-31.62a234.6,234.6,0,0,1,23.19-9.24c6.37-2.28,13-4.64,19.25-7.43,16.91-7.48,28.38-17,35.07-28.92,3.46-6.21,5.65-13.23,7.76-20,1-3.32,2.1-6.75,3.31-10.06,4.65-12.75,11-21,19-24.66,5.38-2.45,12-2.92,19.74-1.41,4.84,1,29.61,6.87,42.32,30.6,6.92,12.92,7.32,26.73,8.13,54.23.18,6.15.11,12.62-.2,18.72a222.17,222.17,0,0,1-3.55,30.53c-3.7,18-14.77,32.27-22.86,42.72-2.26,2.92-4.21,5.44-5.71,7.66-20.8,30.81-52.62,50.93-85.11,53.83Q1769.58,1184.32,1765.68,1184.32Zm66.43-238.46a26.28,26.28,0,0,0-11,2.18c-7.68,3.49-13.89,11.59-18.44,24.07-1.2,3.29-2.26,6.7-3.29,10-2.13,6.85-4.34,13.93-7.85,20.23-6.8,12.18-18.43,21.78-35.55,29.36-6.34,2.81-13,5.17-19.33,7.46a233.08,233.08,0,0,0-23.09,9.2c-16.34,7.88-27.5,18.35-33.19,31.1-9.2,20.63-2.61,44.43,6.63,59.82,17.5,29.15,52.19,46.68,86.35,43.64,32.18-2.87,63.71-22.82,84.34-53.37,1.52-2.26,3.47-4.79,5.74-7.71,8-10.38,19-24.59,22.67-42.29a221.54,221.54,0,0,0,3.53-30.38h0c.31-6.08.37-12.52.19-18.63-.79-27.35-1.19-41.07-8-53.78-12.49-23.32-36.84-29.13-41.6-30.06A42,42,0,0,0,1832.11,945.86Z"/></g><g id="Path_154" data-name="Path 154" class="cls-6"><path class="cls-5" d="M1869.58,1049.21a221,221,0,0,1-3.55,30.45c-4.69,22.8-21.56,39.94-28.48,50.19-19.92,29.49-51.18,50.61-84.73,53.6s-68.59-13.49-86.83-43.89c-10.63-17.7-15.2-41.16-6.67-60.3,6.54-14.67,19.7-24.73,33.45-31.36s28.49-10.49,42.42-16.66,27.52-15.2,35.31-29.15c5.18-9.29,7.43-20.07,11.11-30.16s9.47-20.17,18.72-24.37c6.08-2.76,13-2.63,19.42-1.37,2.6.51,28.72,5.62,42,30.34,6.86,12.81,7.26,26.54,8.06,54C1870,1039.29,1869.72,1046.41,1869.58,1049.21Z"/></g></svg>